{"title":"The Insider-720p MP4 AAC x264 BRRip 1999-CC","uid":8288785,"size":3452963677,"categoryP":"video","categoryS":"hd___movies","magnet":"?xt=urn:btih:4f248e58c1243a931727c902d3e3f30b30f1f803&amp;dn=The+Insider-720p+MP4+AAC+x264+BRRip+1999-CC&amp;tr=udp%3A%2F%2Ftracker.openbittorrent.com%3A80&amp;tr=udp%3A%2F%2Fopen.demonii.com%3A1337&amp;tr=udp%3A%2F%2Ftracker.coppersurfer.tk%3A6969&amp;tr=udp%3A%2F%2Fexodus.desync.com%3A6969","seeders":0,"leechers":1,"uploader":"Caveman44","files":-1,"time":1363994455,"description":" &lt;a href=&quot;http://www.imdb.com/title/tt0140352/&quot; rel=&quot;nofollow&quot; target=&quot;_NEW&quot;&gt;http://www.imdb.com/title/tt0140352/&lt;/a&gt;\n\nSource: The.Insider.1999.720p.BluRay.x264-HD4U Thanks!\n\nSubs: Arabic, Bulgarian, Croatian, Danish, Dutch, English, Farsi-Persian, Finnish, French, German, Hungarian, Italian, Norwegian, Portuguese, Romanian, Russian, Spanish, Swedish.\n\nSample and Screens included.\n\nGeneral\nComplete name                            : The Insider-720p MP4 AAC x264 BRRip 1999-CC.mp4\nFormat                                   : MPEG-4\nFormat profile                           : Base Media\nCodec ID                                 : isom\nFile size                                : 3.18 GiB\nDuration                                 : 2h 37mn\nOverall bit rate mode                    : Variable\nOverall bit rate                         : 2 883 Kbps\nEncoded date                             : UTC 2013-03-14 15:50:28\n\nVideo\nID                                       : 1\nFormat                                   : AVC\nFormat/Info                              : Advanced Video Codec\nFormat profile                           : &lt;a class=&quot;__cf_email__&quot; href=&quot;/cdn-cgi/l/email-protection&quot; data-cfemail=&quot;0f476668674f433b213e&quot;&gt;[email&amp;#160;protected]&lt;/a&gt;&lt;script cf-hash='f9e31' type=&quot;text/javascript&quot;&gt;\n/* &lt;![CDATA[ */!function(){try{var t=&quot;currentScript&quot;in document?document.currentScript:function(){for(var t=document.getElementsByTagName(&quot;script&quot;),e=t.length;e--;)if(t[e].getAttribute(&quot;cf-hash&quot;))return t[e]}();if(t&amp;&amp;t.previousSibling){var e,r,n,i,c=t.previousSibling,a=c.getAttribute(&quot;data-cfemail&quot;);if(a){for(e=&quot;&quot;,r=parseInt(a.substr(0,2),16),n=2;a.length-n;n+=2)i=parseInt(a.substr(n,2),16)^r,e+=String.fromCharCode(i);e=document.createTextNode(e),c.parentNode.replaceChild(e,c)}}}catch(u){}}();/* ]]&gt; */&lt;/script&gt;\nFormat settings, CABAC                   : Yes\nFormat settings, ReFrames                : 5 frames\nCodec ID                                 : avc1\nCodec ID/Info                            : Advanced Video Coding\nDuration                                 : 2h 37mn\nBit rate                                 : 2 518 Kbps\nMaximum bit rate                         : 12.8 Mbps\nWidth                                    : 1 280 pixels\nHeight                                   : 536 pixels\nDisplay aspect ratio                     : 2.40:1\nFrame rate mode                          : Variable\nFrame rate                               : 23.976 fps\nMinimum frame rate                       : 15.873 fps\nMaximum frame rate                       : 25.000 fps\nColor space                              : YUV\nChroma subsampling                       : 4:2:0\nBit depth                                : 8 bits\nScan type                                : Progressive\nBits/(Pixel*Frame)                       : 0.153\nStream size                              : 2.75 GiB (87%)\nWriting library                          : x264 core 112\n\nAudio\nID                                       : 2\nFormat                                   : AAC\nFormat/Info                              : Advanced Audio Codec\nFormat profile                           : LC\nCodec ID                                 : 40\nDuration                                 : 2h 37mn\nBit rate mode                            : Variable\nBit rate                                 : 384 Kbps\nMaximum bit rate                         : 689 Kbps\nChannel(s)                               : 6 channels\nChannel positions                        : Front: L C R, Side: L R, LFE\nSampling rate                            : 48.0 KHz\nCompression mode                         : Lossy\nDelay relative to video                  : 83ms\nStream size                              : 431 MiB (13%)\nLanguage                                 : English\n\nEnjoy...\n\nRequested by mrmuvis \n\nComing soon: Army of Shadows, Tetro, A Boy and more.","torrent":{"xt":"urn:btih:4f248e58c1243a931727c902d3e3f30b30f1f803","amp;dn":"The+Insider-720p+MP4+AAC+x264+BRRip+1999-CC","amp;tr":["udp%3A%2F%2Ftracker.openbittorrent.com%3A80","udp%3A%2F%2Fopen.demonii.com%3A1337","udp%3A%2F%2Ftracker.coppersurfer.tk%3A6969","udp%3A%2F%2Fexodus.desync.com%3A6969"],"infoHash":"4f248e58c1243a931727c902d3e3f30b30f1f803","infoHashBuffer":{"type":"Buffer","data":[79,36,142,88,193,36,58,147,23,39,201,2,211,227,243,11,48,241,248,3]},"announce":[],"urlList":[]}}